# Blender v2.93.0 OBJ File: ''
# www.blender.org
mtllib cube.mtl
o Cube
v 1.000000 1.000000 -1.000000
v 1.000000 -1.000000 -1.000000
v 1.000000 1.000000 1.000000
v 1.000000 -1.000000 1.000000
v -1.000000 1.000000 -1.000000
v -1.000000 -1.000000 -1.000000
v -1.000000 1.000000 1.000000
v -1.000000 -1.000000 1.000000
vt 0.478268 0.712696
vt 0.487400 0.981622
vt 0.279106 0.951787
vt 0.279099 0.727733
vt 0.187809 0.420917
vt 0.187692 0.592021
vt 0.057475 0.590251
vt 0.057489 0.420917
vt 0.966121 0.382282
vt 0.966121 0.617718
vt 0.788921 0.617718
vt 0.788921 0.382282
vt 0.447610 0.069010
vt 0.447610 0.264189
vt 0.301708 0.266977
vt 0.300710 0.069010
vt 0.427097 0.430240
vt 0.427097 0.569760
vt 0.322710 0.569178
vt 0.322803 0.432234
vt 0.692417 0.411543
vt 0.692417 0.588457
vt 0.559264 0.588457
vt 0.559264 0.411543
vn 0.0000 1.0000 0.0000
vn 0.0000 0.0000 1.0000
vn -1.0000 0.0000 0.0000
vn 0.0000 -1.0000 0.0000
vn 1.0000 0.0000 0.0000
vn 0.0000 0.0000 -1.0000
usemtl Material
s off
f 1/1/1 5/2/1 7/3/1 3/4/1
f 4/5/2 3/6/2 7/7/2 8/8/2
f 8/9/3 7/10/3 5/11/3 6/12/3
f 6/13/4 2/14/4 4/15/4 8/16/4
f 2/17/5 1/18/5 3/19/5 4/20/5
f 6/21/6 5/22/6 1/23/6 2/24/6
