# Blender v2.93.5 OBJ File: ''
# www.blender.org
o Spot_Cube.001
v -0.635510 -0.635510 0.782518
v -0.635510 0.635510 0.782518
v -0.635510 -0.635510 -0.782518
v -0.635510 0.635510 -0.782518
v 0.635510 -0.635510 0.782518
v 0.635510 0.635510 0.782518
v 0.635510 -0.635510 -0.782518
v 0.635510 0.635510 -0.782518
v -0.991414 -0.991414 1.758546
v -0.991414 0.991414 1.758546
v 0.991414 0.991414 1.758546
v 0.991414 -0.991414 1.758546
vt 0.375000 0.000000
vt 0.625000 0.000000
vt 0.625000 0.250000
vt 0.375000 0.250000
vt 0.625000 0.500000
vt 0.375000 0.500000
vt 0.625000 0.750000
vt 0.375000 0.750000
vt 0.375000 0.000000
vt 0.625000 0.000000
vt 0.125000 0.500000
vt 0.125000 0.750000
vt 0.875000 0.500000
vt 0.875000 0.750000
vt 0.125000 0.750000
vt 0.375000 0.750000
vt 0.625000 0.750000
vt 0.875000 0.750000
vn -1.0000 0.0000 0.0000
vn 0.0000 0.0000 -1.0000
vn 1.0000 0.0000 0.0000
vn -0.9395 0.0000 -0.3426
vn 0.0000 -1.0000 0.0000
vn 0.0000 1.0000 0.0000
vn 0.0000 0.0000 1.0000
vn 0.0000 -0.9395 -0.3426
vn 0.0000 0.9395 -0.3426
vn 0.9395 0.0000 -0.3426
s off
f 1/1/1 2/2/1 4/3/1 3/4/1
f 3/4/2 4/3/2 8/5/2 7/6/2
f 7/6/3 8/5/3 6/7/3 5/8/3
f 2/2/4 1/1/4 9/9/4 10/10/4
f 3/11/5 7/6/5 5/8/5 1/12/5
f 8/5/6 4/13/6 2/14/6 6/7/6
f 9/15/7 12/16/7 11/17/7 10/18/7
f 1/12/8 5/8/8 12/16/8 9/15/8
f 6/7/9 2/14/9 10/18/9 11/17/9
f 5/8/10 6/7/10 11/17/10 12/16/10
